<?xml version="1.0" encoding="UTF-8"?>
<svg width="295px" height="66px" viewBox="0 0 295 66" version="1.1" xmlns="http://www.w3.org/2000/svg" xmlns:xlink="http://www.w3.org/1999/xlink">
    <title>E2371CB2-5F64-41A6-A908-DC0B292EBFC1</title>
    <g id="Working-files-(for-export)" stroke="none" stroke-width="1" fill="none" fill-rule="evenodd">
        <g id="Rewards-Logo" fill-rule="nonzero">
            <g id="Rewards-Logo/Full">
                <g id="Rewards-Logo/Solo" fill="#191919">
                    <path d="M15.0102247,49.1858887 L15.0102247,33.5142469 L22.4134577,33.5142469 L29.5450125,49.1858887 L46.3890656,49.1858887 L37.2199238,31.0040706 C39.6197485,29.60199 41.5214965,27.7363184 42.9251676,25.4070556 C44.3288387,23.0777929 45.0306742,20.4206242 45.0306742,17.4355495 C45.0306742,14.8123021 44.4420379,12.3699683 43.2647654,10.1085482 C42.0874929,7.847128 40.332904,6.01537766 38.0009988,4.61329715 C35.6690936,3.21121664 32.7598721,2.51017639 29.2733342,2.51017639 L29.2733342,2.51017639 L0,2.51017639 L0,49.1858887 L15.0102247,49.1858887 Z M25.5377579,23.1343284 L15.0102247,23.1343284 L15.0102247,13.1614654 L25.5377579,13.1614654 C26.3527927,13.1614654 27.0772681,13.3763003 27.7111841,13.8059701 C28.3451001,14.23564 28.8431769,14.8123021 29.2054146,15.5359566 C29.5676523,16.259611 29.7487712,17.0963365 29.7487712,18.046133 C29.7487712,19.5838987 29.3412538,20.8163727 28.526219,21.743555 C27.7111841,22.6707372 26.7150304,23.1343284 25.5377579,23.1343284 L25.5377579,23.1343284 Z M65.9215666,50 C69.1364262,50 71.9550883,49.6834012 74.3775529,49.0502035 C76.8000175,48.4170059 78.8262847,47.5011307 80.4563543,46.302578 C82.086424,45.1040253 83.3089762,43.6454093 84.124011,41.92673 C84.9390459,40.2080507 85.3465633,38.2858435 85.3465633,36.1601085 L85.3465633,36.1601085 L72.2380865,36.1601085 C72.2380865,36.883763 72.1248872,37.5621891 71.8984886,38.1953867 C71.6720901,38.8285844 71.2985324,39.3826323 70.7778157,39.8575305 C70.257099,40.3324288 69.5779034,40.7055631 68.7402287,40.9769335 C67.902554,41.2483039 66.8724405,41.3839891 65.6498883,41.3839891 C63.9292592,41.3839891 62.536908,41.0786974 61.4728348,40.468114 C60.4087616,39.8575305 59.6390064,38.9642696 59.1635695,37.7883311 C58.6881325,36.6123926 58.450414,35.2103121 58.450414,33.5820896 L58.450414,33.5820896 L85.3465633,33.5820896 L85.3465633,31.275441 C85.3465633,26.9787427 84.5541683,23.4509272 82.9693784,20.6919946 C81.3845884,17.933062 79.086643,15.8864767 76.0755421,14.5522388 C73.0644412,13.2180009 69.4081044,12.550882 65.1065317,12.550882 C61.0313576,12.550882 57.4882201,13.2406151 54.4771192,14.6200814 C51.4660183,15.9995477 49.1227932,18.0687472 47.4474438,20.8276798 C45.7720944,23.5866124 44.9344198,27.0691995 44.9344198,31.275441 C44.9344198,35.5721393 45.7834144,39.0999548 47.4814036,41.8588874 C49.1793928,44.61782 51.6018574,46.6644052 54.7487975,47.9986431 C57.8957375,49.332881 61.6199939,50 65.9215666,50 Z M71.6947299,27.2048847 L58.5183336,27.2048847 C58.6994524,25.9384894 59.0616901,24.8643148 59.6050467,23.9823609 C60.1484032,23.1004071 60.9181583,22.4106739 61.914312,21.9131615 C62.9104657,21.415649 64.1556578,21.1668928 65.6498883,21.1668928 C66.6007623,21.1668928 67.4497569,21.302578 68.1968721,21.5739484 C68.9439874,21.8453189 69.5779034,22.2410674 70.0986201,22.761194 C70.6193368,23.2813207 71.0155342,23.9145183 71.2872125,24.660787 C71.5588908,25.4070556 71.6947299,26.2550882 71.6947299,27.2048847 L71.6947299,27.2048847 Z M109.111237,49.1858887 L112.575135,37.0420624 C112.846813,36.1827227 113.118491,35.2781547 113.39017,34.3283582 C113.661848,33.3785617 113.922206,32.4513795 114.171245,31.5468114 C114.420283,30.6422433 114.612722,29.8733605 114.748561,29.2401628 L114.748561,29.2401628 L115.020239,29.2401628 C115.201358,29.9185889 115.416437,30.721393 115.665475,31.6485753 C115.914514,32.5757576 116.174872,33.525554 116.44655,34.4979647 C116.718228,35.4703754 116.967267,36.3410222 117.193665,37.109905 L117.193665,37.109905 L120.589644,49.1858887 L133.76604,49.1858887 L146.942437,13.3649932 L133.76604,13.3649932 L130.845499,24.4233379 C130.6191,25.3279059 130.347422,26.4020805 130.030464,27.6458616 C129.713506,28.8896427 129.396548,30.1221167 129.07959,31.3432836 C128.762632,32.5644505 128.490954,33.627318 128.264555,34.531886 L128.264555,34.531886 L127.789118,34.531886 C127.51744,33.4464043 127.211802,32.2478517 126.872204,30.936228 C126.532606,29.6246043 126.215648,28.3695161 125.92133,27.1709634 C125.627012,25.9724107 125.389293,25.0565355 125.208175,24.4233379 L125.208175,24.4233379 L122.355553,13.3649932 L108.907478,13.3649932 L105.986937,24.3554953 C105.715258,25.4862053 105.42094,26.6169154 105.103982,27.7476255 C104.787024,28.8783356 104.481386,30.0090457 104.187068,31.1397558 C103.89275,32.2704659 103.587112,33.4011759 103.270154,34.531886 L103.270154,34.531886 L102.794717,34.531886 C102.523039,33.4011759 102.2174,32.1573948 101.877803,30.8005427 C101.538205,29.4436906 101.221247,28.1659882 100.926929,26.9674355 C100.632611,25.7688829 100.394892,24.8756219 100.213773,24.2876526 L100.213773,24.2876526 L97.4290708,13.3649932 L82.8263635,13.3649932 L95.9348403,49.1858887 L109.111237,49.1858887 Z M181.534288,50 C183.209638,50 184.669908,49.8530077 185.915101,49.5590231 C187.160293,49.2650384 188.054567,48.9597467 188.597924,48.6431479 L188.597924,48.6431479 L188.597924,40.8412483 L186.152819,40.8412483 C185.428344,40.8412483 184.884987,40.581185 184.522749,40.0610583 C184.160512,39.5409317 183.979393,38.9190412 183.979393,38.1953867 L183.979393,38.1953867 L183.979393,24.21981 C183.979393,21.2799638 183.119078,18.9620081 181.398449,17.265943 C179.67782,15.5698779 177.413834,14.3600181 174.606492,13.6363636 C171.79915,12.9127092 168.74277,12.550882 165.437351,12.550882 C161.362176,12.550882 157.932238,13.0144731 155.147536,13.9416554 C152.362833,14.8688376 150.257327,16.1578471 148.831016,17.8086839 C147.404705,19.4595206 146.691549,21.3930348 146.691549,23.6092266 L146.691549,23.6092266 L146.691549,24.0841248 C146.691549,24.21981 146.714189,24.3781095 146.759469,24.5590231 L146.759469,24.5590231 L160.071705,24.5590231 L160.071705,24.2876526 C160.071705,23.4735414 160.332063,22.8403437 160.85278,22.3880597 C161.373496,21.9357757 162.041372,21.6191768 162.856407,21.4382632 C163.671442,21.2573496 164.463837,21.1668928 165.233592,21.1668928 C166.229745,21.1668928 167.1127,21.3251922 167.882455,21.641791 C168.65221,21.9583899 169.274806,22.421981 169.750243,23.0325645 C170.22568,23.6431479 170.463399,24.4459521 170.463399,25.4409769 L170.463399,25.4409769 L170.463399,27.2048847 C166.524064,27.2048847 163.026206,27.3744912 159.969825,27.7137042 C156.913445,28.0529172 154.321181,28.6748078 152.193035,29.5793758 C150.064888,30.4839439 148.446138,31.7729534 147.336785,33.4464043 C146.227432,35.1198553 145.672756,37.2908186 145.672756,39.9592944 C145.672756,41.813659 145.978394,43.385346 146.58967,44.6743555 C147.200946,45.963365 148.072581,47.0036183 149.204574,47.7951153 C150.336566,48.5866124 151.672318,49.1519674 153.211828,49.4911805 C154.751338,49.8303935 156.449328,50 158.305796,50 C160.343383,50 162.154571,49.8077793 163.739361,49.4233379 C165.324151,49.0388964 166.739142,48.5074627 167.984334,47.8290366 C169.229526,47.1506106 170.327559,46.3817277 171.278433,45.5223881 L171.278433,45.5223881 L171.75387,45.5223881 C172.070828,46.4269561 172.648145,47.2184532 173.485819,47.8968792 C174.323494,48.5753053 175.421527,49.0954319 176.779919,49.4572592 C178.13831,49.8190864 179.7231,50 181.534288,50 Z M163.807281,41.587517 C163.037526,41.587517 162.30173,41.4970602 161.599895,41.3161465 C160.898059,41.1352329 160.320743,40.7960199 159.867946,40.2985075 C159.415149,39.800995 159.18875,39.0999548 159.18875,38.1953867 C159.18875,37.2908186 159.573628,36.4993216 160.343383,35.8208955 C161.113138,35.1424695 162.32437,34.5997286 163.97708,34.192673 C165.629789,33.7856174 167.791896,33.5820896 170.463399,33.5820896 L170.463399,33.5820896 L170.463399,36.6350068 C170.463399,37.3586612 170.28228,38.0257802 169.920042,38.6363636 C169.557804,39.2469471 169.059728,39.7670737 168.425812,40.1967436 C167.791896,40.6264134 167.07874,40.9656264 166.286345,41.2143826 C165.49395,41.4631389 164.667595,41.587517 163.807281,41.587517 Z M204.559837,49.1858887 L204.559837,33.2428765 C204.559837,31.8860244 204.706996,30.6761646 205.001314,29.6132972 C205.295632,28.5504297 205.748429,27.6458616 206.359706,26.8995929 C206.970982,26.1533243 207.786017,25.5879692 208.80481,25.2035278 C209.823604,24.8190864 211.057476,24.6268657 212.506427,24.6268657 L212.506427,24.6268657 L216.853279,24.6268657 L216.853279,13.2971506 C216.536321,13.116237 216.015604,12.9353234 215.291129,12.7544098 C214.566654,12.5734962 213.751619,12.4830393 212.846024,12.4830393 C211.487633,12.4830393 210.197161,12.7204885 208.974609,13.1953867 C207.752057,13.6702849 206.676664,14.3826323 205.748429,15.3324288 C204.820195,16.2822252 204.06176,17.4355495 203.473124,18.7924016 L203.473124,18.7924016 L202.997687,18.7924016 L202.114733,13.3649932 L191.043843,13.3649932 L191.043843,49.1858887 L204.559837,49.1858887 Z M233.066894,50 C235.42144,50 237.549586,49.5251018 239.451334,48.5753053 C241.353082,47.6255088 242.937872,46.1329715 244.205704,44.0976934 L244.205704,44.0976934 L244.681141,44.0976934 L245.632015,49.1858887 L256.634985,49.1858887 L256.634985,0 L243.118991,0 L243.118991,16.6892809 L242.643554,16.6892809 C241.964358,15.7394844 241.115363,14.9592944 240.09657,14.348711 C239.077776,13.7381275 237.968423,13.2858435 236.768511,12.9918589 C235.568599,12.6978743 234.334726,12.550882 233.066894,12.550882 C229.897315,12.550882 227.180532,13.2406151 224.916546,14.6200814 C222.652561,15.9995477 220.920612,18.0687472 219.720699,20.8276798 C218.520787,23.5866124 217.920831,27.0465853 217.920831,31.2075984 C217.920831,35.4138399 218.520787,38.9077341 219.720699,41.6892809 C220.920612,44.4708277 222.652561,46.5513342 224.916546,47.9308005 C227.180532,49.3102668 229.897315,50 233.066894,50 Z M237.277908,40.027137 C235.874237,40.027137 234.742244,39.7444595 233.881929,39.1791045 C233.021615,38.6137494 232.399019,37.8109453 232.014141,36.770692 C231.629264,35.7304387 231.436825,34.5092718 231.436825,33.1071913 L231.436825,33.1071913 L231.436825,29.5115332 C231.436825,28.1094527 231.629264,26.8882858 232.014141,25.8480326 C232.399019,24.8077793 233.021615,23.993668 233.881929,23.4056988 C234.742244,22.8177295 235.874237,22.5237449 237.277908,22.5237449 C238.319341,22.5237449 239.224935,22.7272727 239.99469,23.1343284 C240.764446,23.541384 241.387042,24.0954319 241.862479,24.7964722 C242.337916,25.4975124 242.688833,26.3116237 242.915232,27.238806 C243.141631,28.1659882 243.25483,29.149706 243.25483,30.1899593 L243.25483,30.1899593 L243.25483,32.4287653 C243.25483,33.8308458 243.051071,35.1085482 242.643554,36.2618725 C242.236036,37.4151967 241.5908,38.3310719 240.707846,39.009498 C239.824892,39.687924 238.681579,40.027137 237.277908,40.027137 Z M276.457958,50 C278.903062,50 281.246287,49.7964722 283.487633,49.3894166 C285.728979,48.9823609 287.709966,48.3039349 289.430595,47.3541384 C291.151224,46.4043419 292.509616,45.1040253 293.505769,43.4531886 C294.501923,41.8023519 295,39.7557666 295,37.3134328 C295,34.7354138 294.434004,32.734057 293.302011,31.3093623 C292.170018,29.8846676 290.709747,28.8218001 288.921199,28.1207598 C287.13265,27.4197196 285.242222,26.9222071 283.249915,26.6282225 C281.257607,26.3342379 279.401139,26.0289462 277.68051,25.7123474 C276.593797,25.4862053 275.608963,25.2713704 274.726009,25.0678426 C273.843054,24.8643148 273.141219,24.5929444 272.620502,24.2537313 C272.099785,23.9145183 271.839427,23.4735414 271.839427,22.9308005 C271.839427,22.3428313 272.031866,21.8905473 272.416743,21.5739484 C272.801621,21.2573496 273.277058,21.0312076 273.843054,20.8955224 C274.409051,20.7598372 274.963727,20.6806875 275.507084,20.6580733 C276.05044,20.6354591 276.457958,20.624152 276.729636,20.624152 C277.499391,20.624152 278.257826,20.7259159 279.004942,20.9294437 C279.752057,21.1329715 280.363333,21.4495703 280.83877,21.8792402 C281.314207,22.30891 281.551925,22.8629579 281.551925,23.541384 L281.551925,23.541384 L281.551925,24.0841248 L293.981206,24.0841248 C294.026486,23.993668 294.049126,23.8466757 294.049126,23.6431479 L294.049126,23.6431479 L294.049126,23.1343284 C294.049126,21.189507 293.551049,19.5386703 292.554896,18.1818182 C291.558742,16.8249661 290.22299,15.7281773 288.547641,14.8914518 C286.872292,14.0547264 285.027143,13.4441429 283.012196,13.0597015 C280.997249,12.6752601 278.970982,12.4830393 276.933395,12.4830393 C274.57885,12.4830393 272.326184,12.6752601 270.175398,13.0597015 C268.024611,13.4441429 266.100223,14.0999548 264.402234,15.027137 C262.704245,15.9543193 261.368493,17.2094075 260.39498,18.7924016 C259.421466,20.3753957 258.934709,22.3428313 258.934709,24.6947083 C258.934709,26.7752148 259.376186,28.47128 260.25914,29.7829037 C261.142095,31.0945274 262.308047,32.1460877 263.756998,32.9375848 C265.205949,33.7290819 266.779419,34.3396653 268.477408,34.7693351 C270.175398,35.199005 271.862067,35.5495251 273.537416,35.8208955 C275.076926,36.0922659 276.491917,36.3523293 277.782389,36.6010855 C279.072861,36.8498417 280.114294,37.1664405 280.906689,37.550882 C281.699084,37.9353234 282.095282,38.5119855 282.095282,39.2808684 C282.095282,40.1402081 281.755684,40.7507915 281.076488,41.1126187 C280.397293,41.474446 279.616218,41.700588 278.733263,41.7910448 C277.850309,41.8815016 277.091874,41.92673 276.457958,41.92673 C275.416524,41.92673 274.46565,41.7910448 273.605336,41.5196744 C272.745021,41.2483039 272.054506,40.8412483 271.533789,40.2985075 C271.013072,39.7557666 270.730074,39.0773406 270.684794,38.2632293 L270.684794,38.2632293 L270.684794,37.9240163 C270.684794,37.7883311 270.707434,37.6526459 270.752714,37.5169607 L270.752714,37.5169607 L258.187594,37.5169607 C258.142314,37.6978743 258.119674,37.8674808 258.119674,38.0257802 L258.119674,38.0257802 L258.119674,38.4667571 C258.119674,40.5472637 258.663031,42.3111714 259.749744,43.7584803 C260.836457,45.2057892 262.274088,46.3930348 264.062636,47.3202171 C265.851185,48.2473994 267.820852,48.9258254 269.971639,49.3554953 C272.122425,49.7851651 274.284531,50 276.457958,50 Z" id="Rewards"></path>
                </g>
                <g id="Rewards-Logo/Pink-underline" transform="translate(0.000000, 58.000000)" fill="#FFDDD1">
                    <polygon id="Line-2" points="0 8 0.00426444026 0 295 0 295 8"></polygon>
                </g>
            </g>
        </g>
    </g>
</svg>